<?xml version="1.0" standalone="no"?>
<!DOCTYPE svg PUBLIC "-//W3C//DTD SVG 20010904//EN"
 "http://www.w3.org/TR/2001/REC-SVG-20010904/DTD/svg10.dtd">
<svg version="1.0" xmlns="http://www.w3.org/2000/svg"
 width="501.000000pt" height="501.000000pt" viewBox="0 0 501.000000 501.000000"
 preserveAspectRatio="xMidYMid meet">
<metadata>
Created by potrace 1.14, written by Peter Selinger 2001-2017
</metadata>
<g transform="translate(0.000000,501.000000) scale(0.100000,-0.100000)"
fill="#000000" stroke="none">
<path d="M2325 4941 c-11 -5 -28 -7 -37 -5 -10 1 -18 -3 -18 -9 0 -8 -3 -8 -8
-2 -9 13 -44 16 -36 3 4 -6 1 -8 -7 -6 -8 3 -26 2 -40 -3 -16 -4 -31 -3 -38 4
-8 8 -11 7 -11 -2 0 -7 -6 -11 -15 -8 -8 4 -17 2 -20 -3 -4 -6 -11 -10 -16
-10 -6 0 -7 6 -3 13 6 9 5 9 -7 0 -8 -6 -26 -13 -39 -15 -14 -2 -31 -7 -37
-11 -8 -5 -13 -3 -13 5 0 10 -2 10 -9 0 -4 -8 -11 -13 -15 -12 -3 1 -32 -4
-64 -11 -31 -7 -60 -12 -64 -11 -5 1 -8 -2 -8 -8 0 -5 -11 -10 -24 -10 -14 0
-27 -4 -31 -10 -3 -5 -12 -7 -20 -3 -8 3 -15 1 -15 -5 0 -5 -6 -9 -12 -9 -28
1 -78 -16 -78 -27 0 -6 -5 -4 -10 4 -8 13 -10 13 -10 -2 0 -12 -5 -15 -17 -11
-12 5 -14 3 -8 -7 5 -9 4 -11 -4 -6 -6 4 -18 2 -26 -4 -8 -6 -18 -9 -24 -6 -5
4 -17 -1 -25 -10 -9 -8 -16 -12 -16 -8 0 3 -6 2 -12 -3 -7 -6 -21 -9 -31 -8
-9 2 -15 0 -12 -5 4 -7 -36 -26 -59 -28 -5 0 -13 -7 -18 -16 -5 -9 -15 -13
-25 -9 -11 4 -14 3 -9 -5 4 -7 1 -12 -8 -12 -9 0 -16 -4 -16 -10 0 -5 -5 -10
-11 -10 -5 0 -7 4 -4 10 3 6 -1 7 -9 4 -9 -3 -14 -10 -11 -14 3 -5 -4 -11 -15
-15 -11 -3 -20 -11 -20 -16 0 -5 -4 -8 -9 -6 -5 1 -17 -7 -26 -18 -9 -11 -13
-13 -9 -5 7 13 6 13 -12 0 -10 -8 -25 -22 -32 -30 -10 -13 -11 -12 -6 5 4 15
1 13 -10 -5 -8 -14 -15 -21 -16 -16 0 6 -6 1 -14 -9 -8 -11 -20 -16 -29 -12
-11 4 -14 2 -11 -8 3 -8 -4 -19 -18 -26 -12 -7 -29 -18 -36 -26 -8 -7 -18 -11
-23 -8 -5 4 -6 0 -3 -8 3 -8 0 -18 -7 -23 -8 -5 -10 -3 -5 7 4 8 0 5 -8 -5 -9
-11 -16 -16 -16 -10 0 5 -14 -7 -31 -26 -17 -19 -28 -28 -23 -20 4 8 -11 -4
-33 -27 -23 -24 -46 -43 -52 -43 -6 0 -10 -5 -8 -12 1 -7 -2 -12 -8 -13 -14 0
-55 -42 -55 -56 0 -5 -4 -8 -9 -5 -5 3 -12 -1 -15 -10 -3 -8 -10 -12 -16 -9
-5 3 -7 0 -4 -8 3 -8 -2 -17 -10 -20 -9 -4 -16 -14 -16 -22 0 -9 -3 -14 -7
-12 -10 6 -34 -19 -27 -26 3 -3 -4 -8 -15 -12 -13 -4 -18 -11 -14 -22 4 -10 2
-14 -5 -9 -6 3 -13 -3 -17 -14 -4 -12 -11 -17 -18 -14 -7 4 -9 4 -5 -1 4 -4
-3 -20 -15 -35 -12 -15 -28 -36 -35 -46 -7 -11 -10 -13 -6 -5 5 9 3 12 -5 7
-6 -4 -9 -11 -6 -16 3 -5 -2 -16 -11 -24 -8 -9 -13 -16 -9 -16 3 0 0 -6 -7
-14 -7 -8 -17 -11 -23 -8 -5 2 -4 -1 3 -9 10 -11 7 -18 -15 -37 -16 -13 -21
-20 -13 -16 8 4 3 -5 -12 -21 -16 -15 -28 -34 -28 -42 0 -8 -9 -26 -20 -40
-11 -14 -17 -29 -14 -34 3 -5 -3 -9 -13 -10 -10 0 -13 -3 -6 -6 10 -3 9 -8 -2
-20 -8 -8 -13 -18 -10 -23 3 -4 -2 -10 -10 -14 -8 -3 -15 -15 -15 -26 0 -11
-5 -20 -11 -20 -6 0 -9 -7 -5 -15 3 -8 1 -15 -4 -15 -6 0 -10 -9 -10 -21 0
-11 -4 -18 -8 -15 -5 3 -8 -8 -7 -24 1 -16 -2 -27 -7 -24 -4 3 -11 -8 -14 -25
-4 -17 -10 -31 -14 -31 -5 0 -7 -8 -6 -17 2 -10 -5 -33 -16 -51 -10 -18 -16
-37 -13 -42 2 -4 -2 -13 -10 -20 -11 -9 -12 -17 -4 -31 7 -14 6 -21 -4 -25 -7
-2 -14 -10 -15 -17 -2 -22 -7 -42 -15 -54 -5 -7 -6 -13 -2 -13 3 0 1 -10 -6
-21 -8 -16 -8 -20 1 -14 9 6 9 3 1 -13 -6 -12 -11 -25 -10 -29 3 -20 -2 -34
-11 -28 -7 4 -7 -3 0 -20 7 -17 7 -24 0 -20 -9 5 -16 -50 -11 -79 1 -5 -4 -13
-11 -18 -10 -6 -10 -10 2 -18 8 -5 10 -10 4 -10 -6 0 -11 -7 -11 -15 0 -8 5
-15 11 -15 6 0 4 -4 -4 -10 -8 -5 -11 -12 -8 -15 4 -4 3 -18 -2 -31 -6 -14 -6
-26 1 -29 5 -4 6 -12 2 -18 -4 -7 -8 -19 -8 -27 0 -8 -4 -20 -8 -27 -4 -6 -3
-14 3 -18 7 -4 7 -12 0 -25 -7 -13 -6 -20 3 -23 9 -4 9 -7 0 -14 -8 -5 -9 -14
-3 -23 5 -9 5 -19 -2 -27 -7 -9 -7 -13 2 -13 10 0 10 -3 0 -15 -7 -8 -9 -15
-4 -15 12 0 11 -51 0 -69 -6 -9 -5 -12 1 -8 7 4 11 -13 12 -46 2 -64 4 -78 15
-96 6 -10 5 -12 -2 -7 -7 4 -12 3 -12 -3 0 -5 4 -12 8 -15 8 -4 10 -23 15
-118 1 -10 5 -18 9 -18 4 0 5 -7 2 -15 -4 -8 -1 -15 5 -15 9 0 9 -5 1 -20 -8
-14 -8 -20 0 -20 6 0 8 -4 5 -10 -3 -5 -1 -10 5 -10 7 0 9 -7 6 -16 -3 -8 1
-31 9 -50 8 -20 14 -41 12 -47 -1 -7 4 -11 12 -9 12 3 12 0 1 -12 -9 -12 -10
-16 0 -16 7 0 10 -7 7 -15 -4 -8 -2 -17 4 -21 6 -3 8 -12 5 -20 -3 -8 -2 -14
3 -14 4 0 8 -7 9 -15 1 -8 3 -22 4 -30 1 -8 8 -17 15 -19 8 -3 11 -11 8 -16
-4 -6 -2 -16 3 -23 6 -7 12 -21 14 -32 1 -11 7 -23 11 -26 4 -3 9 -16 10 -27
1 -12 5 -22 10 -22 4 0 6 -4 2 -9 -3 -5 -1 -12 5 -16 6 -4 8 -11 5 -16 -4 -5
-1 -9 5 -9 6 0 8 -4 5 -10 -3 -5 -1 -10 5 -10 6 0 8 -4 5 -10 -3 -5 -2 -10 4
-10 10 0 27 -38 23 -52 -1 -5 3 -8 10 -8 6 0 8 -3 5 -7 -4 -3 1 -12 11 -19 11
-9 13 -13 4 -14 -7 0 -10 -5 -7 -10 4 -6 12 -7 18 -4 7 4 9 4 5 -1 -5 -5 4
-24 19 -43 15 -20 21 -32 13 -27 -9 5 -11 4 -6 -3 4 -7 14 -12 21 -12 8 0 12
-6 9 -14 -3 -8 0 -17 5 -21 6 -3 9 -11 5 -16 -3 -5 -2 -9 3 -8 27 5 35 -1 23
-16 -10 -12 -10 -15 4 -15 9 0 16 -7 16 -15 0 -8 5 -15 11 -15 5 0 7 -5 4 -10
-3 -5 1 -10 10 -10 9 0 13 -5 10 -10 -3 -6 -1 -10 4 -10 6 0 11 -10 11 -22 0
-19 2 -20 10 -8 9 13 10 13 10 0 0 -9 9 -22 19 -30 11 -7 18 -17 15 -22 -3 -4
2 -11 10 -14 9 -3 16 -13 16 -21 0 -8 5 -11 10 -8 9 6 14 -8 11 -28 -1 -5 3
-6 9 -2 5 3 10 -1 10 -10 0 -9 4 -14 9 -10 6 3 15 -4 22 -16 6 -12 29 -39 50
-60 21 -20 35 -40 32 -43 -4 -3 1 -6 10 -6 10 0 17 -6 17 -14 0 -7 9 -16 21
-19 13 -4 18 -10 13 -18 -4 -7 -3 -10 2 -6 6 3 27 -10 48 -29 20 -19 41 -34
45 -34 5 0 11 -7 15 -15 3 -8 17 -20 31 -25 14 -5 25 -14 25 -20 0 -5 6 -9 12
-7 7 1 12 -4 11 -10 -2 -7 2 -14 7 -14 6 -1 15 -3 20 -4 6 -1 15 -3 20 -4 6 0
10 -8 10 -18 0 -9 3 -14 6 -10 4 3 13 -1 21 -9 8 -8 19 -11 25 -8 6 4 8 2 5
-3 -4 -6 1 -17 10 -24 14 -12 16 -12 9 1 -4 8 2 4 14 -10 12 -14 24 -24 26
-22 11 7 24 0 24 -13 0 -8 5 -15 11 -15 5 0 7 4 4 10 -3 5 0 7 9 4 8 -3 17
-12 20 -20 3 -8 12 -14 21 -14 8 0 15 -5 15 -11 0 -6 6 -9 13 -6 8 3 20 -3 27
-14 11 -15 17 -16 29 -6 12 9 13 9 8 0 -5 -8 1 -15 18 -19 14 -3 25 -10 25
-16 0 -5 4 -6 10 -3 5 3 10 2 10 -2 0 -5 16 -15 35 -22 19 -7 35 -16 35 -20 0
-6 16 -10 58 -13 6 -1 12 -5 12 -10 0 -5 4 -6 10 -3 5 3 10 1 10 -5 0 -6 5 -8
10 -5 6 3 10 1 10 -5 0 -6 5 -8 10 -5 5 3 10 0 10 -7 0 -10 2 -10 9 1 7 10 10
10 13 1 2 -7 17 -14 33 -16 15 -2 31 -7 34 -12 3 -5 16 -8 28 -7 13 1 19 -3
16 -8 -4 -6 0 -8 10 -4 10 3 17 2 17 -3 0 -6 10 -10 23 -10 13 0 28 -5 35 -12
9 -9 12 -9 12 2 0 9 5 8 15 -6 8 -11 14 -14 15 -6 0 9 8 7 27 -5 17 -11 24
-13 19 -5 -7 12 -4 12 14 2 12 -6 31 -10 41 -7 10 3 22 0 26 -5 4 -7 1 -8 -7
-3 -9 5 -11 4 -6 -4 6 -9 11 -9 23 0 12 10 16 10 24 -2 5 -8 9 -10 9 -5 0 5 7
3 15 -4 10 -8 15 -9 15 -1 0 7 8 8 23 2 12 -4 30 -7 40 -6 9 2 17 0 17 -4 0
-4 20 -6 45 -5 25 1 42 -2 39 -7 -7 -13 19 -7 28 6 5 7 8 6 8 -1 0 -5 18 -9
40 -8 24 1 40 -3 40 -10 0 -7 3 -7 8 -1 9 13 42 15 42 3 0 -6 6 -5 15 2 8 7
15 8 15 3 0 -10 41 -10 58 1 7 4 12 2 12 -6 0 -8 3 -9 8 -3 10 14 56 15 64 1
5 -8 8 -7 8 3 0 8 7 11 20 8 11 -3 20 -1 20 4 0 6 8 5 20 -1 15 -8 20 -8 20 2
0 9 3 9 10 -2 7 -10 10 -11 10 -2 0 8 9 11 25 8 14 -3 25 -1 25 3 0 4 20 7 45
6 25 0 45 3 45 8 0 4 4 5 10 2 5 -3 19 -1 30 5 15 8 20 8 20 -2 0 -8 3 -9 8
-3 4 6 16 12 27 13 11 2 26 9 33 15 10 8 16 7 22 -2 5 -9 9 -10 14 -2 4 6 12
9 17 6 5 -4 9 -1 9 5 0 6 5 8 10 5 6 -4 16 -2 23 3 7 5 20 8 30 7 9 -2 17 2
17 8 0 5 3 7 7 4 3 -4 13 -1 21 6 13 10 14 9 7 -3 -6 -12 -5 -13 6 -2 7 6 21
12 31 12 10 0 26 4 36 9 20 11 45 19 53 17 3 0 13 5 22 13 10 7 17 10 17 6 0
-4 7 -2 15 5 8 6 19 9 25 5 5 -3 10 -1 10 4 0 6 9 11 21 11 11 0 18 4 14 9 -3
6 4 8 15 6 11 -2 20 0 20 6 0 5 7 9 16 9 8 0 12 4 9 10 -3 6 1 7 9 4 9 -3 16
-1 16 5 0 6 3 10 8 9 4 0 16 2 27 6 46 17 64 30 58 39 -3 6 -1 7 5 3 6 -3 14
-1 17 5 4 5 13 8 20 5 7 -2 16 2 19 10 3 9 10 12 16 9 5 -3 10 -2 10 4 0 10
38 27 52 23 5 -1 7 4 5 11 -1 6 4 11 11 10 6 -2 12 2 12 7 0 6 6 10 13 10 7 0
19 9 26 19 8 11 23 18 33 16 10 -2 16 0 14 4 -3 4 6 14 19 21 13 7 22 18 18
23 -3 6 -1 7 4 4 6 -4 20 1 31 11 55 46 63 52 73 52 5 0 7 5 4 10 -3 6 1 10 9
10 8 0 20 8 25 18 6 9 11 13 11 8 0 -5 7 -3 15 4 8 7 12 16 9 21 -3 5 3 6 12
2 12 -4 15 -3 10 5 -4 7 -2 12 5 12 6 0 20 10 30 22 11 11 19 18 19 15 0 -4 8
1 18 11 11 9 17 20 16 23 -2 3 7 11 20 17 13 6 32 24 42 41 10 17 24 31 32 31
7 0 10 5 7 10 -3 6 -1 10 4 10 6 0 11 7 11 16 0 8 5 12 10 9 9 -6 14 8 11 28
-1 5 2 6 7 3 5 -3 16 4 25 15 9 10 14 19 11 19 -3 0 9 15 26 32 16 18 33 41
36 51 3 9 10 14 16 11 6 -4 9 -1 6 7 -2 7 7 25 22 39 15 14 24 32 22 39 -3 8
0 11 6 7 7 -4 14 4 18 19 3 14 10 25 15 25 5 0 9 7 9 15 0 8 5 15 10 15 6 0
10 7 10 15 0 7 7 18 16 23 9 5 15 11 14 13 -4 12 14 38 23 32 5 -3 7 -2 4 4
-3 5 0 21 8 36 7 14 11 28 7 31 -3 3 3 6 14 6 16 0 17 2 4 10 -14 9 -7 14 13
11 5 -1 6 3 3 8 -3 5 1 22 9 37 8 16 15 35 15 42 0 6 5 12 11 12 6 0 9 9 6 20
-3 13 -1 18 6 13 6 -4 8 0 4 10 -3 9 -1 17 5 19 6 2 13 13 15 24 8 43 11 49
23 46 6 -1 9 2 5 8 -4 6 1 22 10 37 9 14 12 22 6 19 -16 -11 -13 10 4 24 8 7
13 16 10 20 -3 5 0 21 6 37 7 15 11 36 10 47 -2 10 2 15 8 12 6 -4 8 3 5 19
-2 14 0 25 5 25 6 0 8 9 6 20 -2 11 -1 20 4 20 4 0 8 10 9 23 0 12 4 36 7 52
4 17 6 38 6 48 0 9 3 15 7 13 4 -3 8 18 7 45 0 27 4 49 8 49 5 0 5 5 2 10 -3
6 0 10 7 10 8 0 9 3 3 8 -15 11 -17 32 -2 32 8 0 7 4 -3 10 -13 8 -13 11 -1
19 8 5 11 16 8 25 -3 8 -1 18 5 22 7 4 6 9 -3 15 -8 5 -9 9 -4 9 6 0 9 20 8
45 -1 31 2 43 9 39 7 -5 8 -2 2 7 -12 20 -14 80 -2 73 6 -4 5 4 -2 16 -10 18
-9 24 1 31 10 6 10 9 2 9 -15 0 -15 69 0 88 7 9 6 11 -7 6 -9 -3 -16 -1 -16 5
0 6 6 11 13 11 8 0 7 4 -3 10 -12 8 -12 10 -1 10 10 0 11 3 2 14 -9 11 -9 16
0 22 9 5 7 10 -5 20 -11 8 -13 14 -7 19 7 4 8 13 2 23 -4 9 -6 23 -4 30 3 7
-1 19 -7 27 -10 12 -10 15 0 15 9 0 8 6 -4 19 -12 13 -14 21 -6 26 8 5 5 12
-7 22 -10 8 -13 12 -6 9 14 -8 12 30 -5 60 -8 16 -8 24 0 32 9 9 9 12 0 12 -7
0 -12 11 -12 25 0 14 -3 25 -7 25 -5 0 -9 14 -10 31 -1 17 -9 44 -17 60 -9 18
-11 29 -4 29 6 0 3 10 -8 22 -12 13 -13 18 -4 13 9 -5 7 1 -5 15 -11 13 -14
20 -6 15 9 -5 7 1 -4 19 -11 16 -13 26 -6 26 7 0 3 10 -9 22 -11 12 -20 29
-20 39 0 25 -26 70 -35 61 -4 -4 -2 4 5 17 6 13 8 21 2 17 -12 -7 -25 22 -15
36 3 7 1 8 -5 4 -8 -5 -12 0 -12 13 0 12 -4 21 -10 21 -5 0 -10 7 -10 15 0 8
-4 15 -9 15 -5 0 -8 11 -6 25 2 20 -1 23 -11 14 -10 -8 -12 -6 -9 9 2 11 -3
23 -11 26 -8 3 -14 17 -14 31 0 14 -3 24 -7 23 -5 -2 -9 1 -10 5 -1 5 -11 17
-22 26 -11 10 -18 21 -14 25 3 3 2 6 -4 6 -6 0 -16 14 -22 30 -5 17 -15 30
-22 30 -6 0 -8 7 -5 16 3 8 2 12 -4 9 -9 -6 -14 8 -11 28 0 4 -6 7 -14 7 -14
0 -19 12 -16 33 0 4 -4 7 -10 7 -6 0 -17 7 -25 15 -11 10 -12 15 -3 15 7 0 2
9 -11 20 -13 11 -27 20 -32 20 -5 0 -6 4 -3 10 3 5 -3 17 -14 27 -11 9 -18 20
-15 25 5 7 -10 12 -29 9 -4 0 -6 5 -5 11 2 7 -3 12 -10 10 -8 -1 -11 2 -8 7 4
5 2 12 -4 16 -6 4 -8 11 -4 16 3 5 1 8 -4 7 -11 -3 -62 48 -55 55 2 3 -5 8
-16 12 -12 3 -19 11 -16 16 4 5 -1 9 -9 9 -9 0 -16 5 -16 11 0 5 -4 7 -10 4
-5 -3 -10 -1 -10 5 0 6 -7 18 -15 26 -8 9 -15 13 -15 11 0 -3 -20 14 -44 38
-24 24 -46 42 -49 39 -3 -3 -11 4 -17 16 -8 14 -17 19 -28 15 -9 -3 -13 -3 -9
1 11 11 -33 53 -49 47 -8 -3 -14 1 -14 11 0 9 -7 16 -16 16 -9 0 -24 9 -33 19
-10 11 -24 21 -32 23 -8 2 -21 11 -30 20 -9 10 -19 15 -23 11 -3 -3 -6 -1 -6
6 0 7 -4 9 -10 6 -5 -3 -10 -1 -10 4 0 6 -6 11 -14 11 -8 0 -17 7 -20 16 -4
10 -14 14 -26 11 -11 -3 -18 -1 -14 4 3 5 -2 9 -11 9 -9 0 -13 4 -10 10 3 6
-1 7 -9 4 -9 -3 -16 -1 -16 6 0 6 -4 8 -10 5 -5 -3 -10 -1 -10 4 0 6 -9 11
-19 11 -10 0 -22 8 -25 17 -6 14 -9 15 -15 4 -6 -10 -10 -9 -15 4 -3 9 -10 14
-15 11 -5 -3 -11 1 -15 9 -3 8 -12 12 -19 9 -8 -3 -21 1 -28 9 -8 8 -22 13
-32 11 -9 -1 -17 2 -17 8 0 6 -7 8 -15 4 -8 -3 -15 -2 -15 3 0 9 -48 26 -62
23 -5 -1 -8 4 -8 11 0 8 -4 7 -10 -3 -8 -12 -10 -12 -11 5 0 11 -3 14 -6 8 -3
-10 -8 -9 -20 2 -8 8 -18 13 -23 10 -5 -3 -11 -1 -15 4 -3 6 -12 8 -20 4 -8
-3 -15 0 -15 6 0 6 -7 8 -15 5 -8 -4 -21 -2 -28 4 -12 9 -47 19 -97 27 -14 3
-34 6 -45 9 -11 2 -24 5 -28 5 -5 1 -5 6 -1 12 5 8 2 9 -12 1 -14 -8 -21 -6
-31 6 -12 15 -12 15 -6 -3 6 -17 4 -18 -9 -8 -8 7 -18 10 -21 6 -4 -3 -7 -2
-7 4 0 5 -12 9 -27 9 -16 -1 -34 3 -40 8 -8 5 -13 4 -13 -3 0 -9 -5 -9 -21 -1
-11 7 -27 9 -35 6 -8 -3 -14 0 -14 6 0 7 -5 6 -15 -2 -9 -7 -15 -8 -15 -2 0
11 -18 11 -37 -1 -6 -4 -15 -2 -19 4 -5 8 -3 9 7 4 8 -5 11 -4 6 0 -11 12 -57
12 -57 0 0 -5 -5 -3 -10 5 -5 8 -10 10 -10 4 0 -10 -42 -6 -79 6 -2 1 -8 -4
-12 -12 -6 -9 -9 -9 -9 -1 0 8 -9 9 -28 3 -16 -4 -36 -4 -45 2 -11 6 -17 5
-17 -2 0 -5 -5 -10 -11 -10 -5 0 -7 5 -4 10 7 11 7 11 -20 1z m1586 -488 c13
-16 12 -17 -3 -4 -17 13 -22 21 -14 21 2 0 10 -8 17 -17z"/>
</g>
</svg>
